<svg xmlns="http://www.w3.org/2000/svg" viewBox="0 0 800 600" fill="none">
  <g stroke="#3b82c4" stroke-width="1.2" opacity="0.45">
    <rect x="40" y="60" width="120" height="70" rx="4"/>
    <path d="M160 95h80M100 130v90M60 220h140"/>
    <circle cx="100" cy="220" r="3" fill="#3b82c4"/>
    <rect x="520" y="40" width="100" height="55" rx="4"/>
    <path d="M620 67h60M570 95v100M500 195h160"/>
    <path d="M80 420h180v45H80zM260 442h70M170 465v80"/>
    <path d="M580 380h-140v50h140zM440 405h-50M490 430v90"/>
    <path d="M300 260h200v100H300zM400 360v50M340 310h120"/>
  </g>
  <g fill="#7c5cbf" opacity="0.2">
    <circle cx="650" cy="180" r="4"/><circle cx="120" cy="350" r="4"/>
    <circle cx="700" cy="480" r="3"/><circle cx="200" cy="80" r="3"/>
  </g>
  <g stroke="#e08a3a" stroke-width="1" opacity="0.3" stroke-dasharray="4 6">
    <path d="M0 300h800M400 0v600"/>
    <circle cx="400" cy="300" r="60"/>
    <circle cx="400" cy="300" r="120"/>
  </g>
</svg>
